<?xml version="1.0" standalone="no"?><!DOCTYPE svg PUBLIC "-//W3C//DTD SVG 1.1//EN" "http://www.w3.org/Graphics/SVG/1.1/DTD/svg11.dtd"><svg t="1578064934788" class="icon" viewBox="0 0 1024 1024" version="1.1" xmlns="http://www.w3.org/2000/svg" p-id="704" xmlns:xlink="http://www.w3.org/1999/xlink" width="200" height="200"><defs><style type="text/css"></style></defs><path d="M265.244444 811.739798l0.077576 0.077576 9.244445 7.369697 9.554747 7.227474 9.826263 6.943031 9.981414 6.503434 10.123636 6.231919 10.408081 6.063839 10.42101 5.494949 10.847677 5.352727 10.834747 5.068283 11.002829 4.628687 11.132121 4.189091 11.274343 4.046869 11.429495 3.46505 11.416566 3.335758 11.571717 2.896161 11.71394 2.456566 11.713939 2.159192 11.856162 1.887677 11.856161 1.448081 11.869091 1.008484 11.856162 0.724041 11.998383 0.426667h12.011314l11.856161-0.426667 11.998384-0.724041 11.856162-1.150707 11.869091-1.44808 11.70101-1.887677 11.726868-2.159192 11.71394-2.611717 11.558788-2.896162 11.571717-3.322828 11.287273-3.607273 11.274343-4.059798 11.132121-4.331313 10.989899-4.628687 10.847677-5.055353 10.705455-5.210505 10.550303-5.792324 10.278787-5.921616 10.265859-6.21899 9.839192-6.658586 9.826263-6.94303 9.541818-7.227475 9.257373-7.511919 9.115152-7.667071 8.817778-8.106666 8.468687-8.313536 0.064646 0.077576 52.273131 52.273131-9.179798 9.037576-9.541818 8.830707-9.839192 8.378182-9.968485 8.248889-10.278787 7.951515-10.408081 7.667071-10.563233 7.369697-10.976969 6.94303-11.002829 6.800808-11.274343 6.503435-11.429495 6.076767-11.558788 5.792323-11.726868 5.482021-11.856162 5.068282-11.998384 4.77091-12.140606 4.486464-12.295758 4.189091-12.437979 3.762424-12.43798 3.322829-12.580202 3.180606-12.593131 2.753939-12.722425 2.314344-12.864646 2.016969-12.864647 1.590303-12.877575 1.305859-12.877576 1.008485-12.864647 0.581818-13.019798 0.142222-12.864646-0.142222-13.019798-0.581818-12.864647-0.866263-12.877575-1.150707-12.864647-1.590303-12.735353-2.029899-12.864647-2.314343-12.580202-2.598788-12.580202-3.038384-12.580202-3.465051-12.295757-3.762424-12.295758-4.059798-12.140606-4.331313-12.153535-4.770909-11.856162-5.068283-11.713939-5.494949-11.571718-5.779394-11.571717-6.076768-11.132121-6.361212-11.132121-6.645657-10.847677-6.94303-10.705454-7.382626-10.563233-7.667071-10.265858-7.809293-9.968485-8.23596-9.839192-8.391111-9.541818-8.817777-9.257374-8.97293-9.115152-9.257373-8.817777-9.541819-8.468687-9.606464 142.816969-142.959192L355.555556 721.428687z" p-id="705"></path><path d="M663.156364 335.153131l26.168889 26.181818-180.764445 180.764445v0.155151l6.658586 0.284445 6.502141 0.72404 6.503435 1.008485 6.503434 1.448081 6.374141 1.732525 6.206061 2.172121 6.220283 2.314344 5.934545 2.896161 5.934546 3.039677 5.637172 3.465051 5.339797 3.620202 5.352728 4.046868 4.927353 4.332607 4.769616 4.486464 4.628687 4.913131 4.189091 5.068283 3.904647 5.210505 3.762424 5.49495 3.322828 5.779394 3.038384 5.779394 2.755232 6.076767 2.313051 6.220283 2.018263 6.21899 1.732525 6.361212 1.305858 6.516364 1.008485 6.503434 0.581818 6.645657 0.284445 6.658586-0.129293 6.503434-0.439596 6.657293-0.880485 6.503434-1.150707 6.503435-1.590303 6.516363-1.873455 6.21899-2.173414 6.206061-2.598788 6.076767-2.896161 6.076768-3.180606 5.635879-3.620202 5.650101-3.749495 5.339798-4.20202 5.210505-4.331314 4.924768-4.783838 4.614464-4.913131 4.487758-5.055354 4.046869-5.507879 3.904646-5.48202 3.47798-5.79103 3.321535-5.935838 2.896162-6.062546 2.598788-6.220283 2.173414-6.361212 1.873454-6.361212 1.590303-6.516364 1.163637-6.502141 0.866262-6.658586 0.426667-6.503434 0.153859-6.645657-0.296081-6.658586-0.581818-6.503434-1.008485-6.361212-1.29293-6.516364-1.745454-6.21899-2.01697-6.21899-2.314343-5.921616-2.75394-5.934545-3.039676-5.637172-3.322829-5.494949-3.761131-5.352728-3.905939-5.068282-4.331313L421.494949 748.037172l-4.473535-4.769616-4.344242-5.068283-4.046869-5.198869-3.762424-5.494949-3.322828-5.650101-3.038384-5.779394-2.896162-6.076768-2.314343-6.062546-2.159192-6.375434-1.745455-6.361212-1.448081-6.361212-1.008485-6.645657-0.72404-6.516363-0.284444-6.645657h-0.142223l-23.725252 23.712323-26.168889-26.168889L516.654545 481.654949l-6.645656-0.284444-6.658586-0.72404-6.645657-1.163637-6.516363-1.292929-6.503435-1.887677-6.218989-2.172121-6.21899-2.456566-6.063839-2.896161-5.934545-3.025455-5.637172-3.620202-5.507879-3.762424-5.339798-4.046869-5.068282-4.486464-4.77091-4.628687-4.486464-4.913132-4.189091-5.210505-4.046869-5.352727-3.620202-5.637172-3.322828-5.779394-3.038384-5.934545-2.611717-6.21899-2.301414-6.21899-2.029899-6.361212-1.590303-6.503434-1.150707-6.658586-0.866263-6.503434-0.581818-6.658586-0.142222-6.787879 0.284444-6.658586 0.581818-6.645657 1.008485-6.658585 1.305859-6.503435 1.732525-6.503434 2.01697-6.374142 2.314343-6.218989 2.753939-6.063839 3.180607-5.934545 3.322828-5.779394 3.762424-5.49495 4.046869-5.352727 4.344242-5.210505 4.486465-4.770909v-0.142222l85.02303-85.03596 26.181818 26.168889-85.035959 85.03596v0.155151l-3.762425 4.046869-3.46505 4.331313-3.180606 4.486465-3.038384 4.770909-2.456566 4.913131-2.314343 5.068283-1.887677 5.210505-1.590303 5.339798-1.150707 5.494949-0.866263 5.507879-0.439595 5.49495-0.142223 5.637171 0.284445 5.49495 0.581818 5.494949 1.150707 5.49495 1.305859 5.352727 1.732525 5.352727 2.029899 5.197576 2.456565 4.913131 2.75394 4.926061 3.038384 4.628687 3.46505 4.331313 3.620202 4.20202 3.904647 4.046869 4.189091 3.607273 4.486464 3.335757 4.628687 3.180606 4.770909 2.74101 5.055354 2.314344 5.068283 2.172121 5.352727 1.732525 5.352727 1.305859 5.48202 1.008485 5.507879 0.72404 5.49495 0.297374 5.637171-0.155152 5.49495-0.426666 5.494949-0.866263 5.49495-1.163636 5.339798-1.590303 5.223434-1.874748 5.055354-2.314343 4.913131-2.611717 4.628687-2.883233 4.628687-3.180606 4.331313-3.47798 4.061091-3.904646 85.176889-85.03596z m-73.903839 327.421414l-0.142222-5.494949-0.580525-5.352727-0.867556-5.354021-1.305858-5.352727-1.577374-5.210505-1.887677-5.055353-2.172121-5.068283-2.600081-4.769616-2.894869-4.628687-3.180606-4.473536-3.466343-4.20202-3.620202-3.905939-4.046869-3.762424-4.20202-3.465051-4.473535-3.180606-4.486465-2.896162-4.914424-2.598787-4.926061-2.172122-5.055353-1.874747-5.210505-1.590303-5.352728-1.305859-5.339798-0.866262-5.352727-0.581819-5.494949-0.140929-5.49495 0.140929-5.352727 0.581819-5.352727 0.866262-5.352728 1.305859-5.210505 1.590303-5.055353 1.874747-4.913132 2.172122-4.770909 2.598787-4.628687 2.896162-4.486464 3.180606-4.189091 3.465051-4.059798 3.762424-3.607273 3.905939-3.47798 4.20202-3.180606 4.473536-2.883232 4.628687-2.611717 4.769616-2.172121 5.068283-1.874748 5.055353-1.590303 5.210505-1.305859 5.352727-0.866262 5.354021-0.581818 5.352727-0.142223 5.494949 0.142223 5.482021 0.581818 5.352727 0.866262 5.35402 1.305859 5.352727 1.590303 5.210505 1.874748 5.054061 2.172121 5.069576 2.611717 4.769616 2.883232 4.628687 3.180606 4.486464 3.47798 4.189091 3.607273 3.90594 4.059798 3.761131 4.189091 3.466344 4.486464 3.180606 4.628687 2.894868 4.770909 2.600081 4.913132 2.172121 5.055353 1.887677 5.210505 1.590303 5.352728 1.292929 5.352727 0.866263 5.352727 0.580525 5.49495 0.142223 5.494949-0.142223 5.352727-0.580525 5.339798-0.866263 5.352728-1.292929 5.210505-1.590303 5.055353-1.887677 4.926061-2.172121 4.914424-2.600081 4.486465-2.894868 4.473535-3.180606 4.20202-3.466344 4.046869-3.761131 3.620202-3.90594 3.466343-4.189091 3.180606-4.486464 2.894869-4.628687 2.600081-4.769616 2.172121-5.069576 1.887677-5.054061 1.577374-5.210505 1.305858-5.352727 0.867556-5.35402 0.580525-5.352727 0.142222-5.482021z" p-id="706"></path><path d="M759.970909 212.014545l-0.064646-0.064646-9.257374-7.382626-9.541818-7.227475-9.839192-6.94303-9.981414-6.503435-10.110707-6.21899-10.421011-6.076767-10.40808-5.49495-10.847677-5.352727-10.847677-5.055354-10.989899-4.628686-11.132121-4.202021-11.287273-4.046868-11.429495-3.465051-11.416565-3.335757-11.571718-2.883233-11.713939-2.469495-11.713939-2.159192-11.856162-1.887676-11.856162-1.435152-11.856161-1.021414-11.869091-0.72404-11.998384-0.426667h-12.011313l-11.856162 0.426667-11.998384 0.72404-11.856161 1.163636-11.856162 1.448081-11.713939 1.874748-11.71394 2.172121-11.713939 2.598788-11.571717 2.896161-11.571717 3.322829-11.287273 3.620202-11.274343 4.046868-11.132122 4.331313-10.989899 4.628687-10.847676 5.068283-10.705455 5.197576-10.550303 5.792323-10.265859 5.921616-10.278787 6.21899-9.826263 6.658586-9.839192 6.94303-9.541818 7.227475-9.257374 7.524849-9.102222 7.654141-8.830707 8.106667-8.533334 8.391111-52.273131-52.428283 9.179798-9.037576 9.541818-8.817778 9.839192-8.391111 9.981414-8.248889 10.265859-7.951515 10.408081-7.66707 10.563232-7.369697 10.989899-6.943031 10.989899-6.800808 11.274343-6.503434 11.429495-6.076768 11.571718-5.779394 11.713939-5.494949 11.856162-5.068283 11.998383-4.770909 12.153536-4.486465 12.282828-4.189091 12.450909-3.762424 12.425051-3.322828 12.580202-3.180606 12.593131-2.75394 12.722424-2.314343 12.864647-2.01697 12.877575-1.590303 12.864647-1.305858 12.877576-1.008485 12.864646-0.581818 13.019798-0.142223 12.864647 0.142223 13.019798 0.581818 12.877575 0.866262 12.864647 1.163637 12.877576 1.577373 12.722424 2.029899 12.864646 2.314344 12.580202 2.598788 12.580202 3.038384 12.580202 3.477979 12.295758 3.749495 12.295757 4.059798 12.153536 4.331313 12.140606 4.77091 11.869091 5.068282 11.70101 5.49495 11.571717 5.779394 11.571717 6.076767 11.132121 6.361213 11.145051 6.658585 10.834747 6.943031 10.705455 7.369697 10.563232 7.66707 10.265859 7.809293 9.981414 8.23596 9.826263 8.391111 9.541818 8.817778 9.257374 8.972929 9.115151 9.257374 8.817778 9.541818 8.533333 9.68404-142.881616 143.036768-52.350707-52.505858z" p-id="707"></path></svg>